<svg width="1317" height="646" fill="none" xmlns="http://www.w3.org/2000/svg"><ellipse cx="230.5" cy="14.685" rx="8.5" ry="8.509" fill="#FF2B2B"/><path d="M5 128V18m115-5H0m5 509.828v110m115 5H0M1312 128V18m-115-5h120m-5 511v110m-115 5h120" stroke="#FBF6F0" stroke-width="10"/><path d="M224.52 626.009h7.08c1.776 0 3.352.352 4.728 1.056 1.376.704 2.44 1.696 3.192 2.976.768 1.264 1.152 2.72 1.152 4.368 0 1.648-.384 3.112-1.152 4.392-.752 1.264-1.816 2.248-3.192 2.952-1.376.704-2.952 1.056-4.728 1.056h-7.08v-16.8Zm6.936 14.712c1.36 0 2.552-.264 3.576-.792 1.04-.528 1.84-1.264 2.4-2.208.56-.96.84-2.064.84-3.312 0-1.248-.28-2.344-.84-3.288-.56-.96-1.36-1.704-2.4-2.232-1.024-.528-2.216-.792-3.576-.792h-4.536v12.624h4.536Zm24.562-2.112h-8.928l-1.848 4.2h-2.472l7.608-16.8h2.376l7.632 16.8h-2.52l-1.848-4.2Zm-.84-1.92-3.624-8.232-3.624 8.232h7.248Zm11.406-8.592h-5.76v-2.088h13.896v2.088h-5.76v14.712h-2.376v-14.712Zm24.142 12.624v2.088h-12.192v-16.8h11.856v2.088h-9.456v5.16h8.424v2.04h-8.424v5.424h9.792Zm40.395-18.12h2.088l-7.92 22.608h-2.088l7.92-22.608Zm47.865 0h2.088l-7.92 22.608h-2.088l7.92-22.608ZM256.752 23.17l-3.624-5.16c-.448.032-.8.048-1.056.048h-4.152v5.112h-2.4V6.37h6.552c2.176 0 3.888.52 5.136 1.56 1.248 1.04 1.872 2.472 1.872 4.296 0 1.296-.32 2.4-.96 3.312-.64.912-1.552 1.576-2.736 1.992l3.984 5.64h-2.616ZM252 16.018c1.52 0 2.68-.328 3.48-.984.8-.656 1.2-1.592 1.2-2.808 0-1.216-.4-2.144-1.2-2.784-.8-.656-1.96-.984-3.48-.984h-4.08v7.56H252Zm24.35 5.064v2.088h-12.192V6.37h11.856v2.088h-9.456v5.16h8.424v2.04h-8.424v5.424h9.792Zm12.527 2.28c-1.68 0-3.2-.368-4.56-1.104a8.349 8.349 0 0 1-3.168-3.072c-.768-1.312-1.152-2.784-1.152-4.416 0-1.632.384-3.096 1.152-4.392a8.08 8.08 0 0 1 3.192-3.072c1.36-.752 2.88-1.128 4.56-1.128 1.312 0 2.512.224 3.6.672a7.252 7.252 0 0 1 2.784 1.944l-1.56 1.512c-1.264-1.328-2.84-1.992-4.728-1.992-1.248 0-2.376.28-3.384.84a6.152 6.152 0 0 0-2.376 2.328c-.56.976-.84 2.072-.84 3.288 0 1.216.28 2.32.84 3.312a6.204 6.204 0 0 0 2.376 2.304c1.008.56 2.136.84 3.384.84 1.872 0 3.448-.672 4.728-2.016l1.56 1.512a7.446 7.446 0 0 1-2.808 1.968c-1.088.448-2.288.672-3.6.672Zm47.109 0c-1.328 0-2.512-.336-3.552-1.008-1.024-.688-1.832-1.68-2.424-2.976-.592-1.296-.888-2.832-.888-4.608 0-1.776.296-3.312.888-4.608.592-1.296 1.4-2.28 2.424-2.952 1.04-.688 2.224-1.032 3.552-1.032 1.312 0 2.48.344 3.504 1.032 1.04.672 1.856 1.656 2.448 2.952.592 1.296.888 2.832.888 4.608 0 1.776-.296 3.312-.888 4.608-.592 1.296-1.408 2.288-2.448 2.976-1.024.672-2.192 1.008-3.504 1.008Zm0-2.136c1.344 0 2.416-.552 3.216-1.656.816-1.104 1.224-2.704 1.224-4.8 0-2.096-.408-3.696-1.224-4.8-.8-1.104-1.872-1.656-3.216-1.656-1.36 0-2.448.552-3.264 1.656-.8 1.104-1.2 2.704-1.2 4.8 0 2.096.4 3.696 1.2 4.8.816 1.104 1.904 1.656 3.264 1.656Zm17.208 2.136c-1.328 0-2.512-.336-3.552-1.008-1.024-.688-1.832-1.68-2.424-2.976-.592-1.296-.888-2.832-.888-4.608 0-1.776.296-3.312.888-4.608.592-1.296 1.4-2.28 2.424-2.952 1.04-.688 2.224-1.032 3.552-1.032 1.312 0 2.48.344 3.504 1.032 1.04.672 1.856 1.656 2.448 2.952.592 1.296.888 2.832.888 4.608 0 1.776-.296 3.312-.888 4.608-.592 1.296-1.408 2.288-2.448 2.976-1.024.672-2.192 1.008-3.504 1.008Zm0-2.136c1.344 0 2.416-.552 3.216-1.656.816-1.104 1.224-2.704 1.224-4.8 0-2.096-.408-3.696-1.224-4.8-.8-1.104-1.872-1.656-3.216-1.656-1.36 0-2.448.552-3.264 1.656-.8 1.104-1.2 2.704-1.2 4.8 0 2.096.4 3.696 1.2 4.8.816 1.104 1.904 1.656 3.264 1.656Zm19.573-7.608c-.448 0-.832-.152-1.152-.456-.32-.32-.48-.72-.48-1.2 0-.464.16-.848.48-1.152.32-.32.704-.48 1.152-.48.448 0 .824.152 1.128.456.304.304.456.696.456 1.176s-.16.88-.48 1.2a1.504 1.504 0 0 1-1.104.456Zm0 9.696c-.448 0-.832-.152-1.152-.456-.32-.32-.48-.72-.48-1.2 0-.464.16-.848.48-1.152.32-.32.704-.48 1.152-.48.448 0 .824.152 1.128.456.304.304.456.696.456 1.176s-.16.88-.48 1.2a1.504 1.504 0 0 1-1.104.456Zm19.563.048c-1.328 0-2.512-.336-3.552-1.008-1.024-.688-1.832-1.68-2.424-2.976-.592-1.296-.888-2.832-.888-4.608 0-1.776.296-3.312.888-4.608.592-1.296 1.4-2.28 2.424-2.952 1.04-.688 2.224-1.032 3.552-1.032 1.312 0 2.48.344 3.504 1.032 1.04.672 1.856 1.656 2.448 2.952.592 1.296.888 2.832.888 4.608 0 1.776-.296 3.312-.888 4.608-.592 1.296-1.408 2.288-2.448 2.976-1.024.672-2.192 1.008-3.504 1.008Zm0-2.136c1.344 0 2.416-.552 3.216-1.656.816-1.104 1.224-2.704 1.224-4.8 0-2.096-.408-3.696-1.224-4.8-.8-1.104-1.872-1.656-3.216-1.656-1.36 0-2.448.552-3.264 1.656-.8 1.104-1.2 2.704-1.2 4.8 0 2.096.4 3.696 1.2 4.8.816 1.104 1.904 1.656 3.264 1.656Zm17.208 2.136c-1.328 0-2.512-.336-3.552-1.008-1.024-.688-1.832-1.68-2.424-2.976-.592-1.296-.888-2.832-.888-4.608 0-1.776.296-3.312.888-4.608.592-1.296 1.4-2.28 2.424-2.952 1.04-.688 2.224-1.032 3.552-1.032 1.312 0 2.48.344 3.504 1.032 1.04.672 1.856 1.656 2.448 2.952.592 1.296.888 2.832.888 4.608 0 1.776-.296 3.312-.888 4.608-.592 1.296-1.408 2.288-2.448 2.976-1.024.672-2.192 1.008-3.504 1.008Zm0-2.136c1.344 0 2.416-.552 3.216-1.656.816-1.104 1.224-2.704 1.224-4.8 0-2.096-.408-3.696-1.224-4.8-.8-1.104-1.872-1.656-3.216-1.656-1.36 0-2.448.552-3.264 1.656-.8 1.104-1.2 2.704-1.2 4.8 0 2.096.4 3.696 1.2 4.8.816 1.104 1.904 1.656 3.264 1.656Zm19.573-7.608c-.448 0-.832-.152-1.152-.456-.32-.32-.48-.72-.48-1.2 0-.464.16-.848.48-1.152.32-.32.704-.48 1.152-.48.448 0 .824.152 1.128.456.304.304.456.696.456 1.176s-.16.88-.48 1.2a1.504 1.504 0 0 1-1.104.456Zm0 9.696c-.448 0-.832-.152-1.152-.456-.32-.32-.48-.72-.48-1.2 0-.464.16-.848.48-1.152.32-.32.704-.48 1.152-.48.448 0 .824.152 1.128.456.304.304.456.696.456 1.176s-.16.88-.48 1.2a1.504 1.504 0 0 1-1.104.456Zm19.563.048c-1.328 0-2.512-.336-3.552-1.008-1.024-.688-1.832-1.68-2.424-2.976-.592-1.296-.888-2.832-.888-4.608 0-1.776.296-3.312.888-4.608.592-1.296 1.4-2.28 2.424-2.952 1.04-.688 2.224-1.032 3.552-1.032 1.312 0 2.48.344 3.504 1.032 1.04.672 1.856 1.656 2.448 2.952.592 1.296.888 2.832.888 4.608 0 1.776-.296 3.312-.888 4.608-.592 1.296-1.408 2.288-2.448 2.976-1.024.672-2.192 1.008-3.504 1.008Zm0-2.136c1.344 0 2.416-.552 3.216-1.656.816-1.104 1.224-2.704 1.224-4.8 0-2.096-.408-3.696-1.224-4.8-.8-1.104-1.872-1.656-3.216-1.656-1.36 0-2.448.552-3.264 1.656-.8 1.104-1.2 2.704-1.2 4.8 0 2.096.4 3.696 1.2 4.8.816 1.104 1.904 1.656 3.264 1.656Zm17.208 2.136c-1.328 0-2.512-.336-3.552-1.008-1.024-.688-1.832-1.68-2.424-2.976-.592-1.296-.888-2.832-.888-4.608 0-1.776.296-3.312.888-4.608.592-1.296 1.4-2.28 2.424-2.952 1.04-.688 2.224-1.032 3.552-1.032 1.312 0 2.48.344 3.504 1.032 1.04.672 1.856 1.656 2.448 2.952.592 1.296.888 2.832.888 4.608 0 1.776-.296 3.312-.888 4.608-.592 1.296-1.408 2.288-2.448 2.976-1.024.672-2.192 1.008-3.504 1.008Zm0-2.136c1.344 0 2.416-.552 3.216-1.656.816-1.104 1.224-2.704 1.224-4.8 0-2.096-.408-3.696-1.224-4.8-.8-1.104-1.872-1.656-3.216-1.656-1.36 0-2.448.552-3.264 1.656-.8 1.104-1.2 2.704-1.2 4.8 0 2.096.4 3.696 1.2 4.8.816 1.104 1.904 1.656 3.264 1.656Zm19.573-7.608c-.448 0-.832-.152-1.152-.456-.32-.32-.48-.72-.48-1.2 0-.464.16-.848.48-1.152.32-.32.704-.48 1.152-.48.448 0 .824.152 1.128.456.304.304.456.696.456 1.176s-.16.88-.48 1.2a1.504 1.504 0 0 1-1.104.456Zm0 9.696c-.448 0-.832-.152-1.152-.456-.32-.32-.48-.72-.48-1.2 0-.464.16-.848.48-1.152.32-.32.704-.48 1.152-.48.448 0 .824.152 1.128.456.304.304.456.696.456 1.176s-.16.88-.48 1.2a1.504 1.504 0 0 1-1.104.456Zm19.563.048c-1.328 0-2.512-.336-3.552-1.008-1.024-.688-1.832-1.68-2.424-2.976-.592-1.296-.888-2.832-.888-4.608 0-1.776.296-3.312.888-4.608.592-1.296 1.4-2.28 2.424-2.952 1.04-.688 2.224-1.032 3.552-1.032 1.312 0 2.48.344 3.504 1.032 1.04.672 1.856 1.656 2.448 2.952.592 1.296.888 2.832.888 4.608 0 1.776-.296 3.312-.888 4.608-.592 1.296-1.408 2.288-2.448 2.976-1.024.672-2.192 1.008-3.504 1.008Zm0-2.136c1.344 0 2.416-.552 3.216-1.656.816-1.104 1.224-2.704 1.224-4.8 0-2.096-.408-3.696-1.224-4.8-.8-1.104-1.872-1.656-3.216-1.656-1.36 0-2.448.552-3.264 1.656-.8 1.104-1.2 2.704-1.2 4.8 0 2.096.4 3.696 1.2 4.8.816 1.104 1.904 1.656 3.264 1.656Zm17.207 2.136c-1.328 0-2.512-.336-3.552-1.008-1.024-.688-1.832-1.68-2.424-2.976-.592-1.296-.888-2.832-.888-4.608 0-1.776.296-3.312.888-4.608.592-1.296 1.4-2.28 2.424-2.952 1.04-.688 2.224-1.032 3.552-1.032 1.312 0 2.48.344 3.504 1.032 1.04.672 1.856 1.656 2.448 2.952.592 1.296.888 2.832.888 4.608 0 1.776-.296 3.312-.888 4.608-.592 1.296-1.408 2.288-2.448 2.976-1.024.672-2.192 1.008-3.504 1.008Zm0-2.136c1.344 0 2.416-.552 3.216-1.656.816-1.104 1.224-2.704 1.224-4.8 0-2.096-.408-3.696-1.224-4.8-.8-1.104-1.872-1.656-3.216-1.656-1.36 0-2.448.552-3.264 1.656-.8 1.104-1.2 2.704-1.2 4.8 0 2.096.4 3.696 1.2 4.8.816 1.104 1.904 1.656 3.264 1.656Zm512.635 606.871h-5.76v-2.088h13.89v2.088h-5.76v14.712h-2.37v-14.712Zm11.95-2.088h2.4v16.8h-2.4v-16.8Zm24.2 16.8-.02-12.24-6.07 10.2h-1.11l-6.07-10.128v12.168h-2.3v-16.8h1.96l7.01 11.808 6.91-11.808h1.97l.03 16.8h-2.31Zm20.74-2.088v2.088h-12.19v-16.8h11.85v2.088h-9.45v5.16h8.42v2.04h-8.42v5.424h9.79Z" fill="#fff"/><rect x="1114.5" y="3.5" width="36" height="20" rx="3.5" stroke="#fff"/><path d="M1110 7.5c0-.276.22-.5.5-.5s.5.224.5.5v12c0 .276-.22.5-.5.5s-.5-.224-.5-.5v-12Z" fill="#fff"/><rect x="1142" y="7" width="5" height="13" rx="2" fill="#fff"/></svg>