<svg width="285" height="286" fill="none" xmlns="http://www.w3.org/2000/svg"><path d="M232 283h53m-1.5-1v-50" stroke="#fff" stroke-width="3"/><path d="M1.254 275.3h3.135c.814 0 1.533.165 2.156.495a3.524 3.524 0 0 1 1.452 1.364c.345.579.517 1.243.517 1.991s-.172 1.415-.517 2.002a3.623 3.623 0 0 1-1.452 1.364c-.623.323-1.342.484-2.156.484H1.254v-7.7Zm3.091 6.996c.675 0 1.265-.132 1.771-.396a2.966 2.966 0 0 0 1.177-1.111c.279-.477.418-1.023.418-1.639 0-.616-.14-1.159-.418-1.628a2.866 2.866 0 0 0-1.177-1.111c-.506-.271-1.096-.407-1.771-.407H2.068v6.292h2.277Zm11.268-1.353h-4.29L10.4 283h-.847l3.52-7.7h.804l3.52 7.7h-.858l-.925-2.057Zm-.296-.66-1.848-4.136-1.848 4.136h3.695Zm5.011-4.279h-2.706v-.704h6.227v.704h-2.707V283h-.814v-6.996Zm10.816 6.292V283h-5.445v-7.7h5.28v.704h-4.466v2.739h3.982v.693h-3.982v2.86h4.63Zm18.28-8.558h.715l-3.63 10.362h-.715l3.63-10.362Zm21.379 0h.715l-3.63 10.362h-.715l3.63-10.362Zm86.947 2.266h-2.706v-.704h6.226v.704h-2.706V283h-.814v-6.996Zm5.37-.704h.814v7.7h-.814v-7.7Zm11.867 0v7.7h-.781v-6.16l-3.025 5.181h-.385l-3.025-5.148V283h-.781v-7.7h.671l3.344 5.709 3.311-5.709h.671Zm8.504 6.996V283h-5.445v-7.7h5.28v.704h-4.466v2.739h3.982v.693h-3.982v2.86h4.631ZM116.512 10l-1.76-2.475a5.573 5.573 0 0 1-.616.033h-2.068V10h-.814V2.3h2.882c.983 0 1.753.235 2.31.704.557.47.836 1.115.836 1.936 0 .601-.154 1.111-.462 1.529-.301.41-.733.708-1.298.891l1.881 2.64h-.891Zm-2.398-3.135c.763 0 1.346-.169 1.749-.506.403-.337.605-.81.605-1.419 0-.623-.202-1.1-.605-1.43-.403-.337-.986-.506-1.749-.506h-2.046v3.861h2.046Zm11.084 2.431V10h-5.445V2.3h5.28v.704h-4.466v2.739h3.982v.693h-3.982v2.86h4.631Zm5.765.77c-.763 0-1.452-.169-2.068-.506a3.765 3.765 0 0 1-1.441-1.397 3.972 3.972 0 0 1-.517-2.013c0-.74.172-1.408.517-2.002a3.723 3.723 0 0 1 1.452-1.408c.616-.337 1.305-.506 2.068-.506.572 0 1.1.095 1.584.286.484.19.894.47 1.232.836l-.517.517c-.602-.609-1.361-.913-2.277-.913a3.35 3.35 0 0 0-1.661.418c-.499.279-.891.66-1.177 1.144a3.2 3.2 0 0 0-.418 1.628 3.2 3.2 0 0 0 .418 1.628c.286.484.678.865 1.177 1.144a3.344 3.344 0 0 0 1.661.418c.924 0 1.683-.308 2.277-.924l.517.517a3.385 3.385 0 0 1-1.243.847 4.284 4.284 0 0 1-1.584.286Zm10.928 0a2.794 2.794 0 0 1-1.595-.473c-.462-.315-.825-.766-1.089-1.353-.257-.594-.385-1.29-.385-2.09 0-.8.128-1.492.385-2.079.264-.594.627-1.049 1.089-1.364a2.794 2.794 0 0 1 1.595-.473c.594 0 1.122.158 1.584.473.469.315.836.77 1.1 1.364.264.587.396 1.28.396 2.079 0 .8-.132 1.496-.396 2.09-.264.587-.631 1.038-1.1 1.353-.462.315-.99.473-1.584.473Zm0-.726a1.93 1.93 0 0 0 1.177-.374c.344-.25.612-.612.803-1.089.19-.477.286-1.052.286-1.727s-.096-1.25-.286-1.727c-.191-.477-.459-.84-.803-1.089a1.929 1.929 0 0 0-1.177-.374c-.448 0-.844.125-1.188.374-.338.25-.602.612-.792 1.089-.191.477-.286 1.052-.286 1.727s.095 1.25.286 1.727c.19.477.454.84.792 1.089.344.25.74.374 1.188.374Zm7.833.726a2.794 2.794 0 0 1-1.595-.473c-.462-.315-.825-.766-1.089-1.353-.257-.594-.385-1.29-.385-2.09 0-.8.128-1.492.385-2.079.264-.594.627-1.049 1.089-1.364a2.794 2.794 0 0 1 1.595-.473c.594 0 1.122.158 1.584.473.469.315.836.77 1.1 1.364.264.587.396 1.28.396 2.079 0 .8-.132 1.496-.396 2.09-.264.587-.631 1.038-1.1 1.353-.462.315-.99.473-1.584.473Zm0-.726c.447 0 .84-.125 1.177-.374.345-.25.612-.612.803-1.089.191-.477.286-1.052.286-1.727s-.095-1.25-.286-1.727c-.191-.477-.458-.84-.803-1.089a1.927 1.927 0 0 0-1.177-.374c-.447 0-.843.125-1.188.374-.337.25-.601.612-.792 1.089-.191.477-.286 1.052-.286 1.727s.095 1.25.286 1.727c.191.477.455.84.792 1.089.345.25.741.374 1.188.374Zm8.787-3.971a.571.571 0 0 1-.418-.176.604.604 0 0 1-.165-.429c0-.169.055-.308.165-.418a.571.571 0 0 1 .418-.176c.161 0 .301.059.418.176a.55.55 0 0 1 .176.418.585.585 0 0 1-.176.429.571.571 0 0 1-.418.176Zm0 4.686a.571.571 0 0 1-.418-.176.604.604 0 0 1-.165-.429c0-.169.055-.308.165-.418a.571.571 0 0 1 .418-.176c.161 0 .301.059.418.176a.55.55 0 0 1 .176.418.585.585 0 0 1-.176.429.571.571 0 0 1-.418.176Zm8.785.011a2.794 2.794 0 0 1-1.595-.473c-.462-.315-.825-.766-1.089-1.353-.257-.594-.385-1.29-.385-2.09 0-.8.128-1.492.385-2.079.264-.594.627-1.049 1.089-1.364a2.794 2.794 0 0 1 1.595-.473c.594 0 1.122.158 1.584.473.469.315.836.77 1.1 1.364.264.587.396 1.28.396 2.079 0 .8-.132 1.496-.396 2.09-.264.587-.631 1.038-1.1 1.353-.462.315-.99.473-1.584.473Zm0-.726c.447 0 .84-.125 1.177-.374.345-.25.612-.612.803-1.089.191-.477.286-1.052.286-1.727s-.095-1.25-.286-1.727c-.191-.477-.458-.84-.803-1.089a1.927 1.927 0 0 0-1.177-.374c-.447 0-.843.125-1.188.374-.337.25-.601.612-.792 1.089-.191.477-.286 1.052-.286 1.727s.095 1.25.286 1.727c.191.477.455.84.792 1.089.345.25.741.374 1.188.374Zm7.833.726a2.796 2.796 0 0 1-1.595-.473c-.462-.315-.825-.766-1.089-1.353-.256-.594-.385-1.29-.385-2.09 0-.8.129-1.492.385-2.079.264-.594.627-1.049 1.089-1.364a2.796 2.796 0 0 1 1.595-.473c.594 0 1.122.158 1.584.473.47.315.836.77 1.1 1.364.264.587.396 1.28.396 2.079 0 .8-.132 1.496-.396 2.09-.264.587-.63 1.038-1.1 1.353-.462.315-.99.473-1.584.473Zm0-.726c.448 0 .84-.125 1.177-.374.345-.25.613-.612.803-1.089.191-.477.286-1.052.286-1.727s-.095-1.25-.286-1.727c-.19-.477-.458-.84-.803-1.089a1.925 1.925 0 0 0-1.177-.374c-.447 0-.843.125-1.188.374-.337.25-.601.612-.792 1.089-.19.477-.286 1.052-.286 1.727s.096 1.25.286 1.727c.191.477.455.84.792 1.089.345.25.741.374 1.188.374Zm8.787-3.971a.573.573 0 0 1-.418-.176.604.604 0 0 1-.165-.429c0-.169.055-.308.165-.418a.573.573 0 0 1 .418-.176.57.57 0 0 1 .418.176c.118.11.176.25.176.418a.581.581 0 0 1-.176.429.57.57 0 0 1-.418.176Zm0 4.686a.573.573 0 0 1-.418-.176.604.604 0 0 1-.165-.429c0-.169.055-.308.165-.418a.573.573 0 0 1 .418-.176.57.57 0 0 1 .418.176c.118.11.176.25.176.418a.581.581 0 0 1-.176.429.57.57 0 0 1-.418.176Zm8.785.011a2.796 2.796 0 0 1-1.595-.473c-.462-.315-.825-.766-1.089-1.353-.256-.594-.385-1.29-.385-2.09 0-.8.129-1.492.385-2.079.264-.594.627-1.049 1.089-1.364a2.796 2.796 0 0 1 1.595-.473c.594 0 1.122.158 1.584.473.47.315.836.77 1.1 1.364.264.587.396 1.28.396 2.079 0 .8-.132 1.496-.396 2.09-.264.587-.63 1.038-1.1 1.353-.462.315-.99.473-1.584.473Zm0-.726c.448 0 .84-.125 1.177-.374.345-.25.613-.612.803-1.089.191-.477.286-1.052.286-1.727s-.095-1.25-.286-1.727c-.19-.477-.458-.84-.803-1.089a1.925 1.925 0 0 0-1.177-.374c-.447 0-.843.125-1.188.374-.337.25-.601.612-.792 1.089-.19.477-.286 1.052-.286 1.727s.096 1.25.286 1.727c.191.477.455.84.792 1.089.345.25.741.374 1.188.374Zm7.834.726a2.794 2.794 0 0 1-1.595-.473c-.462-.315-.825-.766-1.089-1.353-.257-.594-.385-1.29-.385-2.09 0-.8.128-1.492.385-2.079.264-.594.627-1.049 1.089-1.364a2.794 2.794 0 0 1 1.595-.473c.594 0 1.122.158 1.584.473.469.315.836.77 1.1 1.364.264.587.396 1.28.396 2.079 0 .8-.132 1.496-.396 2.09-.264.587-.631 1.038-1.1 1.353-.462.315-.99.473-1.584.473Zm0-.726a1.93 1.93 0 0 0 1.177-.374c.344-.25.612-.612.803-1.089.19-.477.286-1.052.286-1.727s-.096-1.25-.286-1.727c-.191-.477-.459-.84-.803-1.089a1.929 1.929 0 0 0-1.177-.374c-.448 0-.844.125-1.188.374-.338.25-.602.612-.792 1.089-.191.477-.286 1.052-.286 1.727s.095 1.25.286 1.727c.19.477.454.84.792 1.089.344.25.74.374 1.188.374Z" fill="#fff"/><circle cx="104" cy="6" r="4" fill="#FF2B2B"/><rect x="270.25" y="1.25" width="14.5" height="8.5" rx="1.75" stroke="#fff" stroke-width=".5"/><path d="M268 3.5a.5.5 0 0 1 1 0v4a.5.5 0 0 1-1 0v-4Z" fill="#fff"/><rect x="281.25" y="3.25" width="1.5" height="4.5" rx=".25" stroke="#fff" stroke-width=".5"/><path d="M1.5 6v53M3 7.5h50" stroke="#fff" stroke-width="3"/></svg>