<svg width="285" height="286" viewBox="0 0 285 286" fill="none" xmlns="http://www.w3.org/2000/svg">
<path d="M232 283H285M283.5 282V232" stroke="white" stroke-width="3"/>
<path d="M1.254 275.3H4.389C5.203 275.3 5.92167 275.465 6.545 275.795C7.16833 276.118 7.65233 276.572 7.997 277.159C8.34167 277.738 8.514 278.402 8.514 279.15C8.514 279.898 8.34167 280.565 7.997 281.152C7.65233 281.731 7.16833 282.186 6.545 282.516C5.92167 282.839 5.203 283 4.389 283H1.254V275.3ZM4.345 282.296C5.01967 282.296 5.61 282.164 6.116 281.9C6.622 281.629 7.01433 281.258 7.293 280.789C7.57167 280.312 7.711 279.766 7.711 279.15C7.711 278.534 7.57167 277.991 7.293 277.522C7.01433 277.045 6.622 276.675 6.116 276.411C5.61 276.14 5.01967 276.004 4.345 276.004H2.068V282.296H4.345ZM15.6135 280.943H11.3235L10.3995 283H9.55247L13.0725 275.3H13.8755L17.3955 283H16.5375L15.6135 280.943ZM15.3165 280.283L13.4685 276.147L11.6205 280.283H15.3165ZM20.3285 276.004H17.6225V275.3H23.8485V276.004H21.1425V283H20.3285V276.004ZM31.1439 282.296V283H25.6989V275.3H30.9789V276.004H26.5129V278.743H30.4949V279.436H26.5129V282.296H31.1439ZM49.4239 273.738H50.1389L46.5089 284.1H45.7939L49.4239 273.738ZM70.803 273.738H71.518L67.888 284.1H67.173L70.803 273.738Z" fill="white"/>
<path d="M157.75 276.004H155.044V275.3H161.27V276.004H158.564V283H157.75V276.004ZM163.12 275.3H163.934V283H163.12V275.3ZM174.987 275.3V283H174.206V276.84L171.181 282.021H170.796L167.771 276.873V283H166.99V275.3H167.661L171.005 281.009L174.316 275.3H174.987ZM183.491 282.296V283H178.046V275.3H183.326V276.004H178.86V278.743H182.842V279.436H178.86V282.296H183.491Z" fill="white"/>
<path d="M116.512 10L114.752 7.525C114.554 7.547 114.349 7.558 114.136 7.558H112.068V10H111.254V2.3H114.136C115.119 2.3 115.889 2.53467 116.446 3.004C117.003 3.47333 117.282 4.11867 117.282 4.94C117.282 5.54133 117.128 6.051 116.82 6.469C116.519 6.87967 116.087 7.17667 115.522 7.36L117.403 10H116.512ZM114.114 6.865C114.877 6.865 115.46 6.69633 115.863 6.359C116.266 6.02167 116.468 5.54867 116.468 4.94C116.468 4.31667 116.266 3.84 115.863 3.51C115.46 3.17267 114.877 3.004 114.114 3.004H112.068V6.865H114.114ZM125.198 9.296V10H119.753V2.3H125.033V3.004H120.567V5.743H124.549V6.436H120.567V9.296H125.198ZM130.963 10.066C130.2 10.066 129.511 9.89733 128.895 9.56C128.286 9.22267 127.806 8.757 127.454 8.163C127.109 7.56167 126.937 6.89067 126.937 6.15C126.937 5.40933 127.109 4.742 127.454 4.148C127.806 3.54667 128.29 3.07733 128.906 2.74C129.522 2.40267 130.211 2.234 130.974 2.234C131.546 2.234 132.074 2.32933 132.558 2.52C133.042 2.71067 133.452 2.98933 133.79 3.356L133.273 3.873C132.671 3.26433 131.912 2.96 130.996 2.96C130.387 2.96 129.833 3.09933 129.335 3.378C128.836 3.65667 128.444 4.038 128.158 4.522C127.879 5.006 127.74 5.54867 127.74 6.15C127.74 6.75133 127.879 7.294 128.158 7.778C128.444 8.262 128.836 8.64333 129.335 8.922C129.833 9.20067 130.387 9.34 130.996 9.34C131.92 9.34 132.679 9.032 133.273 8.416L133.79 8.933C133.452 9.29967 133.038 9.582 132.547 9.78C132.063 9.97067 131.535 10.066 130.963 10.066ZM141.891 10.066C141.297 10.066 140.765 9.90833 140.296 9.593C139.834 9.27767 139.471 8.82667 139.207 8.24C138.95 7.646 138.822 6.94933 138.822 6.15C138.822 5.35067 138.95 4.65767 139.207 4.071C139.471 3.477 139.834 3.02233 140.296 2.707C140.765 2.39167 141.297 2.234 141.891 2.234C142.485 2.234 143.013 2.39167 143.475 2.707C143.944 3.02233 144.311 3.477 144.575 4.071C144.839 4.65767 144.971 5.35067 144.971 6.15C144.971 6.94933 144.839 7.646 144.575 8.24C144.311 8.82667 143.944 9.27767 143.475 9.593C143.013 9.90833 142.485 10.066 141.891 10.066ZM141.891 9.34C142.338 9.34 142.73 9.21533 143.068 8.966C143.412 8.71667 143.68 8.35367 143.871 7.877C144.061 7.40033 144.157 6.82467 144.157 6.15C144.157 5.47533 144.061 4.89967 143.871 4.423C143.68 3.94633 143.412 3.58333 143.068 3.334C142.73 3.08467 142.338 2.96 141.891 2.96C141.443 2.96 141.047 3.08467 140.703 3.334C140.365 3.58333 140.101 3.94633 139.911 4.423C139.72 4.89967 139.625 5.47533 139.625 6.15C139.625 6.82467 139.72 7.40033 139.911 7.877C140.101 8.35367 140.365 8.71667 140.703 8.966C141.047 9.21533 141.443 9.34 141.891 9.34ZM149.724 10.066C149.13 10.066 148.598 9.90833 148.129 9.593C147.667 9.27767 147.304 8.82667 147.04 8.24C146.783 7.646 146.655 6.94933 146.655 6.15C146.655 5.35067 146.783 4.65767 147.04 4.071C147.304 3.477 147.667 3.02233 148.129 2.707C148.598 2.39167 149.13 2.234 149.724 2.234C150.318 2.234 150.846 2.39167 151.308 2.707C151.777 3.02233 152.144 3.477 152.408 4.071C152.672 4.65767 152.804 5.35067 152.804 6.15C152.804 6.94933 152.672 7.646 152.408 8.24C152.144 8.82667 151.777 9.27767 151.308 9.593C150.846 9.90833 150.318 10.066 149.724 10.066ZM149.724 9.34C150.171 9.34 150.564 9.21533 150.901 8.966C151.246 8.71667 151.513 8.35367 151.704 7.877C151.895 7.40033 151.99 6.82467 151.99 6.15C151.99 5.47533 151.895 4.89967 151.704 4.423C151.513 3.94633 151.246 3.58333 150.901 3.334C150.564 3.08467 150.171 2.96 149.724 2.96C149.277 2.96 148.881 3.08467 148.536 3.334C148.199 3.58333 147.935 3.94633 147.744 4.423C147.553 4.89967 147.458 5.47533 147.458 6.15C147.458 6.82467 147.553 7.40033 147.744 7.877C147.935 8.35367 148.199 8.71667 148.536 8.966C148.881 9.21533 149.277 9.34 149.724 9.34ZM158.511 5.369C158.35 5.369 158.21 5.31033 158.093 5.193C157.983 5.07567 157.928 4.93267 157.928 4.764C157.928 4.59533 157.983 4.456 158.093 4.346C158.21 4.22867 158.35 4.17 158.511 4.17C158.672 4.17 158.812 4.22867 158.929 4.346C159.046 4.456 159.105 4.59533 159.105 4.764C159.105 4.93267 159.046 5.07567 158.929 5.193C158.812 5.31033 158.672 5.369 158.511 5.369ZM158.511 10.055C158.35 10.055 158.21 9.99633 158.093 9.879C157.983 9.76167 157.928 9.61867 157.928 9.45C157.928 9.28133 157.983 9.142 158.093 9.032C158.21 8.91467 158.35 8.856 158.511 8.856C158.672 8.856 158.812 8.91467 158.929 9.032C159.046 9.142 159.105 9.28133 159.105 9.45C159.105 9.61867 159.046 9.76167 158.929 9.879C158.812 9.99633 158.672 10.055 158.511 10.055ZM167.296 10.066C166.702 10.066 166.17 9.90833 165.701 9.593C165.239 9.27767 164.876 8.82667 164.612 8.24C164.355 7.646 164.227 6.94933 164.227 6.15C164.227 5.35067 164.355 4.65767 164.612 4.071C164.876 3.477 165.239 3.02233 165.701 2.707C166.17 2.39167 166.702 2.234 167.296 2.234C167.89 2.234 168.418 2.39167 168.88 2.707C169.349 3.02233 169.716 3.477 169.98 4.071C170.244 4.65767 170.376 5.35067 170.376 6.15C170.376 6.94933 170.244 7.646 169.98 8.24C169.716 8.82667 169.349 9.27767 168.88 9.593C168.418 9.90833 167.89 10.066 167.296 10.066ZM167.296 9.34C167.743 9.34 168.136 9.21533 168.473 8.966C168.818 8.71667 169.085 8.35367 169.276 7.877C169.467 7.40033 169.562 6.82467 169.562 6.15C169.562 5.47533 169.467 4.89967 169.276 4.423C169.085 3.94633 168.818 3.58333 168.473 3.334C168.136 3.08467 167.743 2.96 167.296 2.96C166.849 2.96 166.453 3.08467 166.108 3.334C165.771 3.58333 165.507 3.94633 165.316 4.423C165.125 4.89967 165.03 5.47533 165.03 6.15C165.03 6.82467 165.125 7.40033 165.316 7.877C165.507 8.35367 165.771 8.71667 166.108 8.966C166.453 9.21533 166.849 9.34 167.296 9.34ZM175.129 10.066C174.535 10.066 174.004 9.90833 173.534 9.593C173.072 9.27767 172.709 8.82667 172.445 8.24C172.189 7.646 172.06 6.94933 172.06 6.15C172.06 5.35067 172.189 4.65767 172.445 4.071C172.709 3.477 173.072 3.02233 173.534 2.707C174.004 2.39167 174.535 2.234 175.129 2.234C175.723 2.234 176.251 2.39167 176.713 2.707C177.183 3.02233 177.549 3.477 177.813 4.071C178.077 4.65767 178.209 5.35067 178.209 6.15C178.209 6.94933 178.077 7.646 177.813 8.24C177.549 8.82667 177.183 9.27767 176.713 9.593C176.251 9.90833 175.723 10.066 175.129 10.066ZM175.129 9.34C175.577 9.34 175.969 9.21533 176.306 8.966C176.651 8.71667 176.919 8.35367 177.109 7.877C177.3 7.40033 177.395 6.82467 177.395 6.15C177.395 5.47533 177.3 4.89967 177.109 4.423C176.919 3.94633 176.651 3.58333 176.306 3.334C175.969 3.08467 175.577 2.96 175.129 2.96C174.682 2.96 174.286 3.08467 173.941 3.334C173.604 3.58333 173.34 3.94633 173.149 4.423C172.959 4.89967 172.863 5.47533 172.863 6.15C172.863 6.82467 172.959 7.40033 173.149 7.877C173.34 8.35367 173.604 8.71667 173.941 8.966C174.286 9.21533 174.682 9.34 175.129 9.34ZM183.916 5.369C183.755 5.369 183.616 5.31033 183.498 5.193C183.388 5.07567 183.333 4.93267 183.333 4.764C183.333 4.59533 183.388 4.456 183.498 4.346C183.616 4.22867 183.755 4.17 183.916 4.17C184.078 4.17 184.217 4.22867 184.334 4.346C184.452 4.456 184.51 4.59533 184.51 4.764C184.51 4.93267 184.452 5.07567 184.334 5.193C184.217 5.31033 184.078 5.369 183.916 5.369ZM183.916 10.055C183.755 10.055 183.616 9.99633 183.498 9.879C183.388 9.76167 183.333 9.61867 183.333 9.45C183.333 9.28133 183.388 9.142 183.498 9.032C183.616 8.91467 183.755 8.856 183.916 8.856C184.078 8.856 184.217 8.91467 184.334 9.032C184.452 9.142 184.51 9.28133 184.51 9.45C184.51 9.61867 184.452 9.76167 184.334 9.879C184.217 9.99633 184.078 10.055 183.916 10.055ZM192.701 10.066C192.107 10.066 191.576 9.90833 191.106 9.593C190.644 9.27767 190.281 8.82667 190.017 8.24C189.761 7.646 189.632 6.94933 189.632 6.15C189.632 5.35067 189.761 4.65767 190.017 4.071C190.281 3.477 190.644 3.02233 191.106 2.707C191.576 2.39167 192.107 2.234 192.701 2.234C193.295 2.234 193.823 2.39167 194.285 2.707C194.755 3.02233 195.121 3.477 195.385 4.071C195.649 4.65767 195.781 5.35067 195.781 6.15C195.781 6.94933 195.649 7.646 195.385 8.24C195.121 8.82667 194.755 9.27767 194.285 9.593C193.823 9.90833 193.295 10.066 192.701 10.066ZM192.701 9.34C193.149 9.34 193.541 9.21533 193.878 8.966C194.223 8.71667 194.491 8.35367 194.681 7.877C194.872 7.40033 194.967 6.82467 194.967 6.15C194.967 5.47533 194.872 4.89967 194.681 4.423C194.491 3.94633 194.223 3.58333 193.878 3.334C193.541 3.08467 193.149 2.96 192.701 2.96C192.254 2.96 191.858 3.08467 191.513 3.334C191.176 3.58333 190.912 3.94633 190.721 4.423C190.531 4.89967 190.435 5.47533 190.435 6.15C190.435 6.82467 190.531 7.40033 190.721 7.877C190.912 8.35367 191.176 8.71667 191.513 8.966C191.858 9.21533 192.254 9.34 192.701 9.34ZM200.535 10.066C199.941 10.066 199.409 9.90833 198.94 9.593C198.478 9.27767 198.115 8.82667 197.851 8.24C197.594 7.646 197.466 6.94933 197.466 6.15C197.466 5.35067 197.594 4.65767 197.851 4.071C198.115 3.477 198.478 3.02233 198.94 2.707C199.409 2.39167 199.941 2.234 200.535 2.234C201.129 2.234 201.657 2.39167 202.119 2.707C202.588 3.02233 202.955 3.477 203.219 4.071C203.483 4.65767 203.615 5.35067 203.615 6.15C203.615 6.94933 203.483 7.646 203.219 8.24C202.955 8.82667 202.588 9.27767 202.119 9.593C201.657 9.90833 201.129 10.066 200.535 10.066ZM200.535 9.34C200.982 9.34 201.374 9.21533 201.712 8.966C202.056 8.71667 202.324 8.35367 202.515 7.877C202.705 7.40033 202.801 6.82467 202.801 6.15C202.801 5.47533 202.705 4.89967 202.515 4.423C202.324 3.94633 202.056 3.58333 201.712 3.334C201.374 3.08467 200.982 2.96 200.535 2.96C200.087 2.96 199.691 3.08467 199.347 3.334C199.009 3.58333 198.745 3.94633 198.555 4.423C198.364 4.89967 198.269 5.47533 198.269 6.15C198.269 6.82467 198.364 7.40033 198.555 7.877C198.745 8.35367 199.009 8.71667 199.347 8.966C199.691 9.21533 200.087 9.34 200.535 9.34Z" fill="white"/>
<circle cx="104" cy="6" r="4" fill="#FF2B2B"/>
<rect x="270.25" y="1.25" width="14.5" height="8.5" rx="1.75" stroke="white" stroke-width="0.5"/>
<path d="M268 3.5C268 3.22386 268.224 3 268.5 3V3C268.776 3 269 3.22386 269 3.5V7.5C269 7.77614 268.776 8 268.5 8V8C268.224 8 268 7.77614 268 7.5V3.5Z" fill="white"/>
<rect x="281.25" y="3.25" width="1.5" height="4.5" rx="0.25" stroke="white" stroke-width="0.5"/>
<path d="M1.5 6V59M3 7.5H53" stroke="white" stroke-width="3"/>
</svg>
