<svg width="1317" height="646" viewBox="0 0 1317 646" fill="none" xmlns="http://www.w3.org/2000/svg">
<ellipse cx="230.5" cy="14.6853" rx="8.5" ry="8.50877" fill="#FF2B2B"/>
<path d="M5 128V18M120 13H0" stroke="#FBF6F0" stroke-width="10"/>
<path d="M5 522.828V632.828M120 637.828H0" stroke="#FBF6F0" stroke-width="10"/>
<path d="M1312 128V18M1197 13H1317" stroke="#FBF6F0" stroke-width="10"/>
<path d="M1312 524V634M1197 639H1317" stroke="#FBF6F0" stroke-width="10"/>
<path d="M224.52 626.009H231.6C233.376 626.009 234.952 626.361 236.328 627.065C237.704 627.769 238.768 628.761 239.52 630.041C240.288 631.305 240.672 632.761 240.672 634.409C240.672 636.057 240.288 637.521 239.52 638.801C238.768 640.065 237.704 641.049 236.328 641.753C234.952 642.457 233.376 642.809 231.6 642.809H224.52V626.009ZM231.456 640.721C232.816 640.721 234.008 640.457 235.032 639.929C236.072 639.401 236.872 638.665 237.432 637.721C237.992 636.761 238.272 635.657 238.272 634.409C238.272 633.161 237.992 632.065 237.432 631.121C236.872 630.161 236.072 629.417 235.032 628.889C234.008 628.361 232.816 628.097 231.456 628.097H226.92V640.721H231.456ZM256.018 638.609H247.09L245.242 642.809H242.77L250.378 626.009H252.754L260.386 642.809H257.866L256.018 638.609ZM255.178 636.689L251.554 628.457L247.93 636.689H255.178ZM266.584 628.097H260.824V626.009H274.72V628.097H268.96V642.809H266.584V628.097ZM290.726 640.721V642.809H278.534V626.009H290.39V628.097H280.934V633.257H289.358V635.297H280.934V640.721H290.726ZM331.121 622.601H333.209L325.289 645.209H323.201L331.121 622.601ZM378.986 622.601H381.074L373.154 645.209H371.066L378.986 622.601Z" fill="white"/>
<path d="M256.752 23.1703L253.128 18.0103C252.68 18.0423 252.328 18.0583 252.072 18.0583H247.92V23.1703H245.52V6.37029H252.072C254.248 6.37029 255.96 6.89029 257.208 7.93029C258.456 8.97029 259.08 10.4023 259.08 12.2263C259.08 13.5223 258.76 14.6263 258.12 15.5383C257.48 16.4503 256.568 17.1143 255.384 17.5303L259.368 23.1703H256.752ZM252 16.0183C253.52 16.0183 254.68 15.6903 255.48 15.0343C256.28 14.3783 256.68 13.4423 256.68 12.2263C256.68 11.0103 256.28 10.0823 255.48 9.44229C254.68 8.78629 253.52 8.45829 252 8.45829H247.92V16.0183H252ZM276.35 21.0823V23.1703H264.158V6.37029H276.014V8.45829H266.558V13.6183H274.982V15.6583H266.558V21.0823H276.35ZM288.877 23.3623C287.197 23.3623 285.677 22.9943 284.317 22.2583C282.973 21.5063 281.917 20.4823 281.149 19.1863C280.381 17.8743 279.997 16.4023 279.997 14.7703C279.997 13.1383 280.381 11.6743 281.149 10.3783C281.917 9.06629 282.981 8.04229 284.341 7.30629C285.701 6.55429 287.221 6.17829 288.901 6.17829C290.213 6.17829 291.413 6.40229 292.501 6.85029C293.589 7.28229 294.517 7.93029 295.285 8.79429L293.725 10.3063C292.461 8.97829 290.885 8.31429 288.997 8.31429C287.749 8.31429 286.621 8.59429 285.613 9.15429C284.605 9.71429 283.813 10.4903 283.237 11.4823C282.677 12.4583 282.397 13.5543 282.397 14.7703C282.397 15.9863 282.677 17.0903 283.237 18.0823C283.813 19.0583 284.605 19.8263 285.613 20.3863C286.621 20.9463 287.749 21.2263 288.997 21.2263C290.869 21.2263 292.445 20.5543 293.725 19.2103L295.285 20.7223C294.517 21.5863 293.581 22.2423 292.477 22.6903C291.389 23.1383 290.189 23.3623 288.877 23.3623ZM335.986 23.3623C334.658 23.3623 333.474 23.0263 332.434 22.3543C331.41 21.6663 330.602 20.6743 330.01 19.3783C329.418 18.0823 329.122 16.5463 329.122 14.7703C329.122 12.9943 329.418 11.4583 330.01 10.1623C330.602 8.86629 331.41 7.88229 332.434 7.21029C333.474 6.52229 334.658 6.17829 335.986 6.17829C337.298 6.17829 338.466 6.52229 339.49 7.21029C340.53 7.88229 341.346 8.86629 341.938 10.1623C342.53 11.4583 342.826 12.9943 342.826 14.7703C342.826 16.5463 342.53 18.0823 341.938 19.3783C341.346 20.6743 340.53 21.6663 339.49 22.3543C338.466 23.0263 337.298 23.3623 335.986 23.3623ZM335.986 21.2263C337.33 21.2263 338.402 20.6743 339.202 19.5703C340.018 18.4663 340.426 16.8663 340.426 14.7703C340.426 12.6743 340.018 11.0743 339.202 9.97029C338.402 8.86629 337.33 8.31429 335.986 8.31429C334.626 8.31429 333.538 8.86629 332.722 9.97029C331.922 11.0743 331.522 12.6743 331.522 14.7703C331.522 16.8663 331.922 18.4663 332.722 19.5703C333.538 20.6743 334.626 21.2263 335.986 21.2263ZM353.194 23.3623C351.866 23.3623 350.682 23.0263 349.642 22.3543C348.618 21.6663 347.81 20.6743 347.218 19.3783C346.626 18.0823 346.33 16.5463 346.33 14.7703C346.33 12.9943 346.626 11.4583 347.218 10.1623C347.81 8.86629 348.618 7.88229 349.642 7.21029C350.682 6.52229 351.866 6.17829 353.194 6.17829C354.506 6.17829 355.674 6.52229 356.698 7.21029C357.738 7.88229 358.554 8.86629 359.146 10.1623C359.738 11.4583 360.034 12.9943 360.034 14.7703C360.034 16.5463 359.738 18.0823 359.146 19.3783C358.554 20.6743 357.738 21.6663 356.698 22.3543C355.674 23.0263 354.506 23.3623 353.194 23.3623ZM353.194 21.2263C354.538 21.2263 355.61 20.6743 356.41 19.5703C357.226 18.4663 357.634 16.8663 357.634 14.7703C357.634 12.6743 357.226 11.0743 356.41 9.97029C355.61 8.86629 354.538 8.31429 353.194 8.31429C351.834 8.31429 350.746 8.86629 349.93 9.97029C349.13 11.0743 348.73 12.6743 348.73 14.7703C348.73 16.8663 349.13 18.4663 349.93 19.5703C350.746 20.6743 351.834 21.2263 353.194 21.2263ZM372.767 13.6183C372.319 13.6183 371.935 13.4663 371.615 13.1623C371.295 12.8423 371.135 12.4423 371.135 11.9623C371.135 11.4983 371.295 11.1143 371.615 10.8103C371.935 10.4903 372.319 10.3303 372.767 10.3303C373.215 10.3303 373.591 10.4823 373.895 10.7863C374.199 11.0903 374.351 11.4823 374.351 11.9623C374.351 12.4423 374.191 12.8423 373.871 13.1623C373.567 13.4663 373.199 13.6183 372.767 13.6183ZM372.767 23.3143C372.319 23.3143 371.935 23.1623 371.615 22.8583C371.295 22.5383 371.135 22.1383 371.135 21.6583C371.135 21.1943 371.295 20.8103 371.615 20.5063C371.935 20.1863 372.319 20.0263 372.767 20.0263C373.215 20.0263 373.591 20.1783 373.895 20.4823C374.199 20.7863 374.351 21.1783 374.351 21.6583C374.351 22.1383 374.191 22.5383 373.871 22.8583C373.567 23.1623 373.199 23.3143 372.767 23.3143ZM392.33 23.3623C391.002 23.3623 389.818 23.0263 388.778 22.3543C387.754 21.6663 386.946 20.6743 386.354 19.3783C385.762 18.0823 385.466 16.5463 385.466 14.7703C385.466 12.9943 385.762 11.4583 386.354 10.1623C386.946 8.86629 387.754 7.88229 388.778 7.21029C389.818 6.52229 391.002 6.17829 392.33 6.17829C393.642 6.17829 394.81 6.52229 395.834 7.21029C396.874 7.88229 397.69 8.86629 398.282 10.1623C398.874 11.4583 399.17 12.9943 399.17 14.7703C399.17 16.5463 398.874 18.0823 398.282 19.3783C397.69 20.6743 396.874 21.6663 395.834 22.3543C394.81 23.0263 393.642 23.3623 392.33 23.3623ZM392.33 21.2263C393.674 21.2263 394.746 20.6743 395.546 19.5703C396.362 18.4663 396.77 16.8663 396.77 14.7703C396.77 12.6743 396.362 11.0743 395.546 9.97029C394.746 8.86629 393.674 8.31429 392.33 8.31429C390.97 8.31429 389.882 8.86629 389.066 9.97029C388.266 11.0743 387.866 12.6743 387.866 14.7703C387.866 16.8663 388.266 18.4663 389.066 19.5703C389.882 20.6743 390.97 21.2263 392.33 21.2263ZM409.538 23.3623C408.21 23.3623 407.026 23.0263 405.986 22.3543C404.962 21.6663 404.154 20.6743 403.562 19.3783C402.97 18.0823 402.674 16.5463 402.674 14.7703C402.674 12.9943 402.97 11.4583 403.562 10.1623C404.154 8.86629 404.962 7.88229 405.986 7.21029C407.026 6.52229 408.21 6.17829 409.538 6.17829C410.85 6.17829 412.018 6.52229 413.042 7.21029C414.082 7.88229 414.898 8.86629 415.49 10.1623C416.082 11.4583 416.378 12.9943 416.378 14.7703C416.378 16.5463 416.082 18.0823 415.49 19.3783C414.898 20.6743 414.082 21.6663 413.042 22.3543C412.018 23.0263 410.85 23.3623 409.538 23.3623ZM409.538 21.2263C410.882 21.2263 411.954 20.6743 412.754 19.5703C413.57 18.4663 413.978 16.8663 413.978 14.7703C413.978 12.6743 413.57 11.0743 412.754 9.97029C411.954 8.86629 410.882 8.31429 409.538 8.31429C408.178 8.31429 407.09 8.86629 406.274 9.97029C405.474 11.0743 405.074 12.6743 405.074 14.7703C405.074 16.8663 405.474 18.4663 406.274 19.5703C407.09 20.6743 408.178 21.2263 409.538 21.2263ZM429.111 13.6183C428.663 13.6183 428.279 13.4663 427.959 13.1623C427.639 12.8423 427.479 12.4423 427.479 11.9623C427.479 11.4983 427.639 11.1143 427.959 10.8103C428.279 10.4903 428.663 10.3303 429.111 10.3303C429.559 10.3303 429.935 10.4823 430.239 10.7863C430.543 11.0903 430.695 11.4823 430.695 11.9623C430.695 12.4423 430.535 12.8423 430.215 13.1623C429.911 13.4663 429.543 13.6183 429.111 13.6183ZM429.111 23.3143C428.663 23.3143 428.279 23.1623 427.959 22.8583C427.639 22.5383 427.479 22.1383 427.479 21.6583C427.479 21.1943 427.639 20.8103 427.959 20.5063C428.279 20.1863 428.663 20.0263 429.111 20.0263C429.559 20.0263 429.935 20.1783 430.239 20.4823C430.543 20.7863 430.695 21.1783 430.695 21.6583C430.695 22.1383 430.535 22.5383 430.215 22.8583C429.911 23.1623 429.543 23.3143 429.111 23.3143ZM448.674 23.3623C447.346 23.3623 446.162 23.0263 445.122 22.3543C444.098 21.6663 443.29 20.6743 442.698 19.3783C442.106 18.0823 441.81 16.5463 441.81 14.7703C441.81 12.9943 442.106 11.4583 442.698 10.1623C443.29 8.86629 444.098 7.88229 445.122 7.21029C446.162 6.52229 447.346 6.17829 448.674 6.17829C449.986 6.17829 451.154 6.52229 452.178 7.21029C453.218 7.88229 454.034 8.86629 454.626 10.1623C455.218 11.4583 455.514 12.9943 455.514 14.7703C455.514 16.5463 455.218 18.0823 454.626 19.3783C454.034 20.6743 453.218 21.6663 452.178 22.3543C451.154 23.0263 449.986 23.3623 448.674 23.3623ZM448.674 21.2263C450.018 21.2263 451.09 20.6743 451.89 19.5703C452.706 18.4663 453.114 16.8663 453.114 14.7703C453.114 12.6743 452.706 11.0743 451.89 9.97029C451.09 8.86629 450.018 8.31429 448.674 8.31429C447.314 8.31429 446.226 8.86629 445.41 9.97029C444.61 11.0743 444.21 12.6743 444.21 14.7703C444.21 16.8663 444.61 18.4663 445.41 19.5703C446.226 20.6743 447.314 21.2263 448.674 21.2263ZM465.882 23.3623C464.554 23.3623 463.37 23.0263 462.33 22.3543C461.306 21.6663 460.498 20.6743 459.906 19.3783C459.314 18.0823 459.018 16.5463 459.018 14.7703C459.018 12.9943 459.314 11.4583 459.906 10.1623C460.498 8.86629 461.306 7.88229 462.33 7.21029C463.37 6.52229 464.554 6.17829 465.882 6.17829C467.194 6.17829 468.362 6.52229 469.386 7.21029C470.426 7.88229 471.242 8.86629 471.834 10.1623C472.426 11.4583 472.722 12.9943 472.722 14.7703C472.722 16.5463 472.426 18.0823 471.834 19.3783C471.242 20.6743 470.426 21.6663 469.386 22.3543C468.362 23.0263 467.194 23.3623 465.882 23.3623ZM465.882 21.2263C467.226 21.2263 468.298 20.6743 469.098 19.5703C469.914 18.4663 470.322 16.8663 470.322 14.7703C470.322 12.6743 469.914 11.0743 469.098 9.97029C468.298 8.86629 467.226 8.31429 465.882 8.31429C464.522 8.31429 463.434 8.86629 462.618 9.97029C461.818 11.0743 461.418 12.6743 461.418 14.7703C461.418 16.8663 461.818 18.4663 462.618 19.5703C463.434 20.6743 464.522 21.2263 465.882 21.2263ZM485.455 13.6183C485.007 13.6183 484.623 13.4663 484.303 13.1623C483.983 12.8423 483.823 12.4423 483.823 11.9623C483.823 11.4983 483.983 11.1143 484.303 10.8103C484.623 10.4903 485.007 10.3303 485.455 10.3303C485.903 10.3303 486.279 10.4823 486.583 10.7863C486.887 11.0903 487.039 11.4823 487.039 11.9623C487.039 12.4423 486.879 12.8423 486.559 13.1623C486.255 13.4663 485.887 13.6183 485.455 13.6183ZM485.455 23.3143C485.007 23.3143 484.623 23.1623 484.303 22.8583C483.983 22.5383 483.823 22.1383 483.823 21.6583C483.823 21.1943 483.983 20.8103 484.303 20.5063C484.623 20.1863 485.007 20.0263 485.455 20.0263C485.903 20.0263 486.279 20.1783 486.583 20.4823C486.887 20.7863 487.039 21.1783 487.039 21.6583C487.039 22.1383 486.879 22.5383 486.559 22.8583C486.255 23.1623 485.887 23.3143 485.455 23.3143ZM505.018 23.3623C503.69 23.3623 502.506 23.0263 501.466 22.3543C500.442 21.6663 499.634 20.6743 499.042 19.3783C498.45 18.0823 498.154 16.5463 498.154 14.7703C498.154 12.9943 498.45 11.4583 499.042 10.1623C499.634 8.86629 500.442 7.88229 501.466 7.21029C502.506 6.52229 503.69 6.17829 505.018 6.17829C506.33 6.17829 507.498 6.52229 508.522 7.21029C509.562 7.88229 510.378 8.86629 510.97 10.1623C511.562 11.4583 511.858 12.9943 511.858 14.7703C511.858 16.5463 511.562 18.0823 510.97 19.3783C510.378 20.6743 509.562 21.6663 508.522 22.3543C507.498 23.0263 506.33 23.3623 505.018 23.3623ZM505.018 21.2263C506.362 21.2263 507.434 20.6743 508.234 19.5703C509.05 18.4663 509.458 16.8663 509.458 14.7703C509.458 12.6743 509.05 11.0743 508.234 9.97029C507.434 8.86629 506.362 8.31429 505.018 8.31429C503.658 8.31429 502.57 8.86629 501.754 9.97029C500.954 11.0743 500.554 12.6743 500.554 14.7703C500.554 16.8663 500.954 18.4663 501.754 19.5703C502.57 20.6743 503.658 21.2263 505.018 21.2263ZM522.225 23.3623C520.897 23.3623 519.713 23.0263 518.673 22.3543C517.649 21.6663 516.841 20.6743 516.249 19.3783C515.657 18.0823 515.361 16.5463 515.361 14.7703C515.361 12.9943 515.657 11.4583 516.249 10.1623C516.841 8.86629 517.649 7.88229 518.673 7.21029C519.713 6.52229 520.897 6.17829 522.225 6.17829C523.537 6.17829 524.705 6.52229 525.729 7.21029C526.769 7.88229 527.585 8.86629 528.177 10.1623C528.769 11.4583 529.065 12.9943 529.065 14.7703C529.065 16.5463 528.769 18.0823 528.177 19.3783C527.585 20.6743 526.769 21.6663 525.729 22.3543C524.705 23.0263 523.537 23.3623 522.225 23.3623ZM522.225 21.2263C523.569 21.2263 524.641 20.6743 525.441 19.5703C526.257 18.4663 526.665 16.8663 526.665 14.7703C526.665 12.6743 526.257 11.0743 525.441 9.97029C524.641 8.86629 523.569 8.31429 522.225 8.31429C520.865 8.31429 519.777 8.86629 518.961 9.97029C518.161 11.0743 517.761 12.6743 517.761 14.7703C517.761 16.8663 518.161 18.4663 518.961 19.5703C519.777 20.6743 520.865 21.2263 522.225 21.2263Z" fill="white"/>
<path d="M1034.86 628.097H1029.1V626.009H1042.99V628.097H1037.23V642.809H1034.86V628.097ZM1046.81 626.009H1049.21V642.809H1046.81V626.009ZM1071.01 642.809L1070.99 630.569L1064.92 640.769H1063.81L1057.74 630.641V642.809H1055.44V626.009H1057.4L1064.41 637.817L1071.32 626.009H1073.29L1073.32 642.809H1071.01ZM1091.75 640.721V642.809H1079.56V626.009H1091.41V628.097H1081.96V633.257H1090.38V635.297H1081.96V640.721H1091.75Z" fill="white"/>
<rect x="1114.5" y="3.5" width="36" height="20" rx="3.5" stroke="white"/>
<path d="M1110 7.5C1110 7.22386 1110.22 7 1110.5 7C1110.78 7 1111 7.22386 1111 7.5V19.5C1111 19.7761 1110.78 20 1110.5 20C1110.22 20 1110 19.7761 1110 19.5V7.5Z" fill="white"/>
<rect x="1142" y="7" width="5" height="13" rx="2" fill="white"/>
</svg>
